<svg width="143" height="40" viewBox="0 0 143 40" fill="none" xmlns="http://www.w3.org/2000/svg">
<path d="M0 22.5661C0 23.3025 0.671573 23.8994 1.5 23.8994C2.32843 23.8994 3 23.3025 3 22.5661V17.2327C3 16.4964 2.32843 15.8994 1.5 15.8994C0.671573 15.8994 0 16.4964 0 17.2327V22.5661Z" fill="#22A2EF"/>
<path d="M5.20001 27.3994C5.20001 28.2278 5.87158 28.8994 6.70001 28.8994C7.52844 28.8994 8.20001 28.2278 8.20001 27.3994V12.3994C8.20001 11.571 7.52844 10.8994 6.70001 10.8994C5.87158 10.8994 5.20001 11.571 5.20001 12.3994V27.3994Z" fill="#22A2EF"/>
<path d="M10.4 21.3994C10.4 22.2278 11.0716 22.8994 11.9 22.8994C12.7285 22.8994 13.4 22.2278 13.4 21.3994V18.3994C13.4 17.571 12.7285 16.8994 11.9 16.8994C11.0716 16.8994 10.4 17.571 10.4 18.3994V21.3994Z" fill="#22A2EF"/>
<path d="M15.6 19.8994C15.6 20.7278 16.2715 21.3994 17.1 21.3994C17.9284 21.3994 18.6 20.7278 18.6 19.8994C18.6 19.071 17.9284 18.3994 17.1 18.3994C16.2715 18.3994 15.6 19.071 15.6 19.8994Z" fill="#22A2EF"/>
<path d="M20.8 30.4876C20.8 31.2673 21.4716 31.8994 22.3 31.8994C23.1284 31.8994 23.8 31.2673 23.8 30.4876V9.31118C23.8 8.53148 23.1284 7.89941 22.3 7.89941C21.4716 7.89941 20.8 8.53148 20.8 9.31118V30.4876Z" fill="#22A2EF"/>
<path d="M26 27.3994C26 28.2278 26.6716 28.8994 27.5 28.8994C28.3284 28.8994 29 28.2278 29 27.3994V12.3994C29 11.571 28.3284 10.8994 27.5 10.8994C26.6716 10.8994 26 11.571 26 12.3994V27.3994Z" fill="#22A2EF"/>
<path d="M31.2 21.9994C31.2 22.7726 31.8716 23.3994 32.7 23.3994C33.5284 23.3994 34.2 22.7726 34.2 21.9994V17.7994C34.2 17.0262 33.5284 16.3994 32.7 16.3994C31.8716 16.3994 31.2 17.0262 31.2 17.7994V21.9994Z" fill="#22A2EF"/>
<path d="M36.4 22.5661C36.4 23.3025 37.0716 23.8994 37.9 23.8994C38.7285 23.8994 39.4 23.3025 39.4 22.5661V17.2327C39.4 16.4964 38.7285 15.8994 37.9 15.8994C37.0716 15.8994 36.4 16.4964 36.4 17.2327V22.5661Z" fill="#22A2EF"/>
<path d="M41.6 27.5148C41.6 28.2795 42.2715 28.8994 43.1 28.8994C43.9284 28.8994 44.6 28.2795 44.6 27.5148V12.284C44.6 11.5193 43.9284 10.8994 43.1 10.8994C42.2715 10.8994 41.6 11.5193 41.6 12.284V27.5148Z" fill="#22A2EF"/>
<path d="M48 22.5661C48 23.3025 48.8954 23.8994 50 23.8994C51.1046 23.8994 52 23.3025 52 22.5661V17.2327C52 16.4964 51.1046 15.8994 50 15.8994C48.8954 15.8994 48 16.4964 48 17.2327V22.5661Z" fill="#22A2EF"/>
<path d="M54.2 27.3994C54.2 28.2278 54.8716 28.8994 55.7 28.8994C56.5284 28.8994 57.2 28.2278 57.2 27.3994V12.3994C57.2 11.571 56.5284 10.8994 55.7 10.8994C54.8716 10.8994 54.2 11.571 54.2 12.3994V27.3994Z" fill="#22A2EF"/>
<path d="M59.4 21.3994C59.4 22.2278 60.0716 22.8994 60.9 22.8994C61.7285 22.8994 62.4 22.2278 62.4 21.3994V18.3994C62.4 17.571 61.7285 16.8994 60.9 16.8994C60.0716 16.8994 59.4 17.571 59.4 18.3994V21.3994Z" fill="#22A2EF"/>
<path d="M64.6 19.8994C64.6 20.7278 65.2715 21.3994 66.1 21.3994C66.9284 21.3994 67.6 20.7278 67.6 19.8994C67.6 19.071 66.9284 18.3994 66.1 18.3994C65.2715 18.3994 64.6 19.071 64.6 19.8994Z" fill="#22A2EF"/>
<path d="M69.8 30.4876C69.8 31.2673 70.4716 31.8994 71.3 31.8994C72.1284 31.8994 72.8 31.2673 72.8 30.4876V9.31118C72.8 8.53148 72.1284 7.89941 71.3 7.89941C70.4716 7.89941 69.8 8.53148 69.8 9.31118V30.4876Z" fill="#22A2EF"/>
<path d="M75 27.3994C75 28.2278 75.8954 28.8994 77 28.8994C78.1046 28.8994 79 28.2278 79 27.3994V12.3994C79 11.571 78.1046 10.8994 77 10.8994C75.8954 10.8994 75 11.571 75 12.3994V27.3994Z" fill="#22A2EF"/>
<path d="M81.2 21.9994C81.2 22.7726 81.8716 23.3994 82.7 23.3994C83.5284 23.3994 84.2 22.7726 84.2 21.9994V17.7994C84.2 17.0262 83.5284 16.3994 82.7 16.3994C81.8716 16.3994 81.2 17.0262 81.2 17.7994V21.9994Z" fill="#22A2EF"/>
<path d="M86.4 22.5661C86.4 23.3025 87.0716 23.8994 87.9 23.8994C88.7285 23.8994 89.4 23.3025 89.4 22.5661V17.2327C89.4 16.4964 88.7285 15.8994 87.9 15.8994C87.0716 15.8994 86.4 16.4964 86.4 17.2327V22.5661Z" fill="#22A2EF"/>
<path d="M91.6 27.5148C91.6 28.2795 92.2715 28.8994 93.1 28.8994C93.9284 28.8994 94.6 28.2795 94.6 27.5148V12.284C94.6 11.5193 93.9284 10.8994 93.1 10.8994C92.2715 10.8994 91.6 11.5193 91.6 12.284V27.5148Z" fill="#22A2EF"/>
<path d="M98 22.5661C98 23.3025 98.6716 23.8994 99.5 23.8994C100.328 23.8994 101 23.3025 101 22.5661V17.2327C101 16.4964 100.328 15.8994 99.5 15.8994C98.6716 15.8994 98 16.4964 98 17.2327V22.5661Z" fill="white"/>
<path d="M103.2 27.3994C103.2 28.2278 103.872 28.8994 104.7 28.8994C105.528 28.8994 106.2 28.2278 106.2 27.3994V12.3994C106.2 11.571 105.528 10.8994 104.7 10.8994C103.872 10.8994 103.2 11.571 103.2 12.3994V27.3994Z" fill="white"/>
<path d="M108.4 21.3994C108.4 22.2278 109.072 22.8994 109.9 22.8994C110.728 22.8994 111.4 22.2278 111.4 21.3994V18.3994C111.4 17.571 110.728 16.8994 109.9 16.8994C109.072 16.8994 108.4 17.571 108.4 18.3994V21.3994Z" fill="white"/>
<path d="M113.6 19.8994C113.6 20.7278 114.272 21.3994 115.1 21.3994C115.928 21.3994 116.6 20.7278 116.6 19.8994C116.6 19.071 115.928 18.3994 115.1 18.3994C114.272 18.3994 113.6 19.071 113.6 19.8994Z" fill="white"/>
<path d="M118.8 30.4876C118.8 31.2673 119.472 31.8994 120.3 31.8994C121.128 31.8994 121.8 31.2673 121.8 30.4876V9.31118C121.8 8.53148 121.128 7.89941 120.3 7.89941C119.472 7.89941 118.8 8.53148 118.8 9.31118V30.4876Z" fill="white"/>
<path d="M124 27.3994C124 28.2278 124.672 28.8994 125.5 28.8994C126.328 28.8994 127 28.2278 127 27.3994V12.3994C127 11.571 126.328 10.8994 125.5 10.8994C124.672 10.8994 124 11.571 124 12.3994V27.3994Z" fill="white"/>
<path d="M129.2 21.9994C129.2 22.7726 129.872 23.3994 130.7 23.3994C131.528 23.3994 132.2 22.7726 132.2 21.9994V17.7994C132.2 17.0262 131.528 16.3994 130.7 16.3994C129.872 16.3994 129.2 17.0262 129.2 17.7994V21.9994Z" fill="white"/>
<path d="M134.4 22.5661C134.4 23.3025 135.072 23.8994 135.9 23.8994C136.728 23.8994 137.4 23.3025 137.4 22.5661V17.2327C137.4 16.4964 136.728 15.8994 135.9 15.8994C135.072 15.8994 134.4 16.4964 134.4 17.2327V22.5661Z" fill="white"/>
<path d="M139.6 27.5148C139.6 28.2795 140.272 28.8994 141.1 28.8994C141.928 28.8994 142.6 28.2795 142.6 27.5148V12.284C142.6 11.5193 141.928 10.8994 141.1 10.8994C140.272 10.8994 139.6 11.5193 139.6 12.284V27.5148Z" fill="white"/>
</svg>
