<svg width="24" height="24" viewBox="0 0 24 24" fill="none" xmlns="http://www.w3.org/2000/svg">
<path d="M18 14.0001C17.4092 14.004 16.8265 14.1388 16.294 14.3947C15.7615 14.6506 15.2922 15.0213 14.92 15.4801L9.82 13.1301C10.0598 12.3959 10.0598 11.6044 9.82 10.8701L14.92 8.52011C15.5216 9.24608 16.3603 9.73619 17.2881 9.90395C18.216 10.0717 19.1732 9.90634 19.9909 9.43702C20.8087 8.96769 21.4344 8.22459 21.7575 7.33886C22.0807 6.45312 22.0806 5.4817 21.7573 4.59602C21.434 3.71035 20.8081 2.96736 19.9903 2.49818C19.1725 2.02901 18.2152 1.86381 17.2874 2.03174C16.3597 2.19967 15.521 2.68993 14.9195 3.41601C14.318 4.14208 13.9924 5.05729 14 6.00011C14.003 6.23835 14.0264 6.47588 14.07 6.71011L8.79 9.14011C8.22708 8.58969 7.51424 8.21763 6.7408 8.07054C5.96736 7.92345 5.16772 8.00788 4.44205 8.31325C3.71638 8.61861 3.09696 9.13133 2.6614 9.78718C2.22584 10.443 1.9935 11.2128 1.9935 12.0001C1.9935 12.7874 2.22584 13.5572 2.6614 14.2131C3.09696 14.8689 3.71638 15.3816 4.44205 15.687C5.16772 15.9923 5.96736 16.0768 6.7408 15.9297C7.51424 15.7826 8.22708 15.4105 8.79 14.8601L14.07 17.2901C14.0264 17.5243 14.003 17.7619 14 18.0001C14 18.7912 14.2346 19.5646 14.6741 20.2224C15.1136 20.8802 15.7384 21.3929 16.4693 21.6956C17.2002 21.9984 18.0044 22.0776 18.7804 21.9233C19.5563 21.7689 20.269 21.388 20.8284 20.8285C21.3878 20.2691 21.7688 19.5564 21.9231 18.7805C22.0775 18.0046 21.9983 17.2003 21.6955 16.4694C21.3928 15.7385 20.8801 15.1138 20.2223 14.6742C19.5645 14.2347 18.7911 14.0001 18 14.0001ZM18 4.00011C18.3956 4.00011 18.7822 4.11741 19.1111 4.33718C19.44 4.55694 19.6964 4.8693 19.8478 5.23475C19.9991 5.6002 20.0387 6.00233 19.9616 6.3903C19.8844 6.77826 19.6939 7.13462 19.4142 7.41433C19.1345 7.69403 18.7781 7.88451 18.3902 7.96169C18.0022 8.03886 17.6001 7.99925 17.2346 7.84787C16.8692 7.6965 16.5568 7.44015 16.3371 7.11125C16.1173 6.78236 16 6.39568 16 6.00011C16 5.46968 16.2107 4.96097 16.5858 4.5859C16.9609 4.21083 17.4696 4.00011 18 4.00011ZM6 14.0001C5.60443 14.0001 5.21776 13.8828 4.88886 13.6631C4.55996 13.4433 4.30361 13.1309 4.15224 12.7655C4.00086 12.4 3.96126 11.9979 4.03843 11.6099C4.1156 11.222 4.30608 10.8656 4.58578 10.5859C4.86549 10.3062 5.22186 10.1157 5.60982 10.0385C5.99778 9.96137 6.39991 10.001 6.76536 10.1524C7.13082 10.3037 7.44317 10.5601 7.66294 10.889C7.8827 11.2179 8 11.6046 8 12.0001C8 12.5305 7.78928 13.0393 7.41421 13.4143C7.03914 13.7894 6.53043 14.0001 6 14.0001ZM18 20.0001C17.6044 20.0001 17.2178 19.8828 16.8889 19.6631C16.56 19.4433 16.3036 19.1309 16.1522 18.7655C16.0009 18.4 15.9613 17.9979 16.0384 17.6099C16.1156 17.222 16.3061 16.8656 16.5858 16.5859C16.8655 16.3062 17.2219 16.1157 17.6098 16.0385C17.9978 15.9614 18.3999 16.001 18.7654 16.1524C19.1308 16.3037 19.4432 16.5601 19.6629 16.889C19.8827 17.2179 20 17.6046 20 18.0001C20 18.5305 19.7893 19.0393 19.4142 19.4143C19.0391 19.7894 18.5304 20.0001 18 20.0001Z" fill="black"/>
</svg>
