<svg width="158" height="156" viewBox="0 0 158 156" fill="none" xmlns="http://www.w3.org/2000/svg">
<g clip-path="url(#clip0_458_809)">
<path d="M100.305 35.0839H57.7308C56.7606 35.0851 55.8305 35.4755 55.1445 36.1694C54.4585 36.8633 54.0725 37.8041 54.0714 38.7855V134.494L53.5834 134.645L43.1393 137.88C42.6443 138.033 42.1097 137.98 41.6528 137.735C41.1958 137.489 40.854 137.07 40.7022 136.57L9.6357 33.9266C9.48451 33.4259 9.53604 32.885 9.77896 32.4228C10.0219 31.9605 10.4363 31.6147 10.9312 31.4614L27.0255 26.4767L73.6837 12.0309L89.7779 7.04621C90.0228 6.96996 90.2802 6.94332 90.5354 6.9678C90.7905 6.99228 91.0383 7.06742 91.2647 7.18889C91.4911 7.31037 91.6915 7.47581 91.8546 7.67575C92.0177 7.87569 92.1402 8.10619 92.2152 8.35407L100.156 34.5904L100.305 35.0839Z" fill="#F2F2F2"/>
<path d="M109.595 34.5903L100.024 2.9695C99.8652 2.44264 99.6049 1.95268 99.2583 1.52762C98.9118 1.10255 98.4859 0.750722 98.0049 0.492222C97.5239 0.233723 96.9973 0.073621 96.4551 0.0210722C95.9129 -0.0314766 95.3658 0.024557 94.845 0.185965L72.2174 7.1917L25.5617 21.6399L2.93407 28.6481C1.88291 28.9746 1.00275 29.7096 0.486803 30.6918C-0.0291469 31.674 -0.138742 32.8232 0.182079 33.887L32.8928 141.954C33.1534 142.813 33.6793 143.564 34.3932 144.099C35.1072 144.633 35.9716 144.922 36.8597 144.923C37.2708 144.923 37.6795 144.86 38.0722 144.737L53.5834 139.935L54.0713 139.782V139.267L53.5834 139.417L37.9283 144.266C37.0004 144.552 35.9983 144.454 35.1417 143.994C34.285 143.534 33.6439 142.749 33.3588 141.811L0.65059 33.7414C0.509357 33.2767 0.460133 32.7884 0.505736 32.3045C0.551339 31.8205 0.69087 31.3504 0.916346 30.9211C1.14182 30.4918 1.44882 30.1116 1.81974 29.8025C2.19066 29.4933 2.61823 29.2612 3.07796 29.1195L25.7056 22.1113L72.3614 7.66549L94.9891 0.657296C95.3378 0.549656 95.7003 0.494772 96.0649 0.494429C96.8473 0.496206 97.6086 0.751353 98.2373 1.2225C98.866 1.69364 99.329 2.35603 99.5585 3.11263L109.085 34.5903L109.237 35.0838H109.744L109.595 34.5903Z" fill="#3F3D56"/>
<path d="M29.9298 31.5422C29.4596 31.5418 29.0018 31.3891 28.6237 31.1063C28.2456 30.8236 27.9671 30.4257 27.8289 29.9711L24.6866 19.5891C24.6021 19.3102 24.5728 19.0173 24.6003 18.7269C24.6279 18.4366 24.7116 18.1546 24.8469 17.897C24.9822 17.6394 25.1663 17.4114 25.3888 17.2258C25.6112 17.0402 25.8676 16.9007 26.1433 16.8154L69.0661 3.52355C69.623 3.35169 70.2244 3.4103 70.7386 3.68653C71.2527 3.96276 71.6375 4.43404 71.8085 4.99693L74.9508 15.379C75.1206 15.9422 75.0626 16.5506 74.7896 17.0706C74.5165 17.5906 74.0506 17.9798 73.4942 18.1528L30.5713 31.4447C30.3634 31.5092 30.1472 31.5421 29.9298 31.5422Z" fill="#22A2EF"/>
<path d="M46.3905 11.0934C49.0853 11.0934 51.2698 8.88373 51.2698 6.15801C51.2698 3.43229 49.0853 1.22266 46.3905 1.22266C43.6958 1.22266 41.5112 3.43229 41.5112 6.15801C41.5112 8.88373 43.6958 11.0934 46.3905 11.0934Z" fill="#22A2EF"/>
<path d="M46.3907 9.28364C48.0971 9.28364 49.4805 7.88443 49.4805 6.15842C49.4805 4.43241 48.0971 3.0332 46.3907 3.0332C44.6843 3.0332 43.301 4.43241 43.301 6.15842C43.301 7.88443 44.6843 9.28364 46.3907 9.28364Z" fill="white"/>
<path d="M147.022 143.661H64.5617C64.0119 143.661 63.4849 143.439 63.0961 143.046C62.7073 142.653 62.4887 142.12 62.488 141.564V41.6229C62.4887 41.0668 62.7073 40.5337 63.0961 40.1404C63.4848 39.7472 64.0119 39.526 64.5617 39.5254H147.022C147.571 39.526 148.098 39.7472 148.487 40.1404C148.876 40.5337 149.095 41.0668 149.095 41.6229V141.564C149.095 142.12 148.876 142.653 148.487 143.046C148.098 143.439 147.571 143.661 147.022 143.661Z" fill="#E6E6E6"/>
<path d="M109.085 34.5908H57.7306C56.6312 34.5924 55.5772 35.0349 54.7997 35.8213C54.0223 36.6076 53.5848 37.6738 53.5833 38.7859V139.418L54.0712 139.267V38.7859C54.0724 37.8045 54.4583 36.8637 55.1443 36.1698C55.8303 35.4759 56.7605 35.0855 57.7306 35.0844H109.236L109.085 34.5908ZM153.853 34.5908H57.7306C56.6312 34.5924 55.5772 35.0349 54.7997 35.8213C54.0223 36.6076 53.5848 37.6738 53.5833 38.7859V151.805C53.5848 152.918 54.0223 153.984 54.7997 154.77C55.5772 155.556 56.6312 155.999 57.7306 156H153.853C154.952 155.999 156.006 155.556 156.783 154.77C157.561 153.984 157.998 152.918 158 151.805V38.7859C157.998 37.6738 157.561 36.6076 156.783 35.8213C156.006 35.0349 154.952 34.5924 153.853 34.5908ZM157.512 151.805C157.511 152.787 157.125 153.728 156.439 154.421C155.753 155.115 154.823 155.506 153.853 155.507H57.7306C56.7605 155.506 55.8303 155.115 55.1443 154.421C54.4583 153.728 54.0724 152.787 54.0712 151.805V38.7859C54.0724 37.8045 54.4583 36.8637 55.1443 36.1698C55.8303 35.4759 56.7605 35.0855 57.7306 35.0844H153.853C154.823 35.0855 155.753 35.4759 156.439 36.1698C157.125 36.8637 157.511 37.8045 157.512 38.7859V151.805Z" fill="#3F3D56"/>
<path d="M128.236 45.448H83.347C82.7649 45.4474 82.2068 45.2132 81.7952 44.7968C81.3836 44.3804 81.152 43.8159 81.1514 43.2271V32.3693C81.152 31.7805 81.3836 31.216 81.7952 30.7997C82.2068 30.3833 82.7649 30.1491 83.347 30.1484H128.236C128.819 30.1491 129.377 30.3833 129.788 30.7997C130.2 31.216 130.431 31.7805 130.432 32.3693V43.2271C130.431 43.8159 130.2 44.3804 129.788 44.7968C129.377 45.2132 128.819 45.4474 128.236 45.448Z" fill="#22A2EF"/>
<path d="M105.792 30.8893C108.486 30.8893 110.671 28.6796 110.671 25.9539C110.671 23.2282 108.486 21.0186 105.792 21.0186C103.097 21.0186 100.912 23.2282 100.912 25.9539C100.912 28.6796 103.097 30.8893 105.792 30.8893Z" fill="#22A2EF"/>
<path d="M105.792 28.9594C107.433 28.9594 108.764 27.6136 108.764 25.9534C108.764 24.2931 107.433 22.9473 105.792 22.9473C104.15 22.9473 102.82 24.2931 102.82 25.9534C102.82 27.6136 104.15 28.9594 105.792 28.9594Z" fill="white"/>
</g>
<defs>
<clipPath id="clip0_458_809">
<rect width="158" height="156" fill="white"/>
</clipPath>
</defs>
</svg>
