<svg width="24" height="24" viewBox="0 0 24 24" fill="none" xmlns="http://www.w3.org/2000/svg">
<path d="M19.9 12.6604C19.7397 12.4779 19.6513 12.2433 19.6513 12.0004C19.6513 11.7575 19.7397 11.5229 19.9 11.3404L21.18 9.90038C21.321 9.74305 21.4086 9.54509 21.4302 9.33489C21.4517 9.12469 21.4062 8.91307 21.3 8.73038L19.3 5.27038C19.1949 5.0879 19.0349 4.94326 18.8427 4.85707C18.6506 4.77088 18.4362 4.74754 18.23 4.79038L16.35 5.17038C16.1108 5.21981 15.8617 5.17997 15.6499 5.05838C15.438 4.93679 15.278 4.74187 15.2 4.51038L14.59 2.68038C14.5229 2.48176 14.3951 2.30925 14.2246 2.18723C14.0541 2.0652 13.8496 1.99984 13.64 2.00038H9.63999C9.42192 1.989 9.20612 2.04931 9.02555 2.1721C8.84498 2.29489 8.70957 2.4734 8.63999 2.68038L8.07999 4.51038C8.00199 4.74187 7.84196 4.93679 7.6301 5.05838C7.41824 5.17997 7.1692 5.21981 6.92999 5.17038L4.99999 4.79038C4.80454 4.76276 4.60529 4.79361 4.42734 4.87902C4.24938 4.96444 4.10069 5.10061 3.99999 5.27038L1.99999 8.73038C1.89115 8.91103 1.84221 9.12147 1.86017 9.33161C1.87813 9.54174 1.96207 9.74082 2.09999 9.90038L3.36999 11.3404C3.53031 11.5229 3.61872 11.7575 3.61872 12.0004C3.61872 12.2433 3.53031 12.4779 3.36999 12.6604L2.09999 14.1004C1.96207 14.2599 1.87813 14.459 1.86017 14.6692C1.84221 14.8793 1.89115 15.0897 1.99999 15.2704L3.99999 18.7304C4.10509 18.9129 4.26511 19.0575 4.45724 19.1437C4.64937 19.2299 4.86381 19.2532 5.06999 19.2104L6.94999 18.8304C7.1892 18.781 7.43824 18.8208 7.6501 18.9424C7.86196 19.064 8.02199 19.2589 8.09999 19.4904L8.70999 21.3204C8.77957 21.5274 8.91498 21.7059 9.09555 21.8287C9.27612 21.9515 9.49192 22.0118 9.70999 22.0004H13.71C13.9196 22.0009 14.1241 21.9356 14.2946 21.8135C14.4651 21.6915 14.5929 21.519 14.66 21.3204L15.27 19.4904C15.348 19.2589 15.508 19.064 15.7199 18.9424C15.9317 18.8208 16.1808 18.781 16.42 18.8304L18.3 19.2104C18.5062 19.2532 18.7206 19.2299 18.9127 19.1437C19.1049 19.0575 19.2649 18.9129 19.37 18.7304L21.37 15.2704C21.4762 15.0877 21.5217 14.8761 21.5002 14.6659C21.4786 14.4557 21.391 14.2577 21.25 14.1004L19.9 12.6604ZM18.41 14.0004L19.21 14.9004L17.93 17.1204L16.75 16.8804C16.0298 16.7332 15.2806 16.8555 14.6446 17.2242C14.0086 17.5929 13.5301 18.1822 13.3 18.8804L12.92 20.0004H10.36L9.99999 18.8604C9.76984 18.1622 9.29137 17.5729 8.65539 17.2042C8.01942 16.8355 7.27021 16.7132 6.54999 16.8604L5.36999 17.1004L4.06999 14.8904L4.86999 13.9904C5.36194 13.4404 5.63392 12.7283 5.63392 11.9904C5.63392 11.2525 5.36194 10.5404 4.86999 9.99038L4.06999 9.09038L5.34999 6.89038L6.52999 7.13038C7.25021 7.27761 7.99942 7.15526 8.63539 6.78658C9.27137 6.4179 9.74984 5.82854 9.97999 5.13038L10.36 4.00038H12.92L13.3 5.14038C13.5301 5.83854 14.0086 6.4279 14.6446 6.79658C15.2806 7.16526 16.0298 7.28761 16.75 7.14038L17.93 6.90038L19.21 9.12038L18.41 10.0204C17.9236 10.5691 17.655 11.2771 17.655 12.0104C17.655 12.7437 17.9236 13.4516 18.41 14.0004ZM11.64 8.00038C10.8489 8.00038 10.0755 8.23498 9.41771 8.67451C8.75991 9.11403 8.24722 9.73874 7.94447 10.4696C7.64172 11.2006 7.56251 12.0048 7.71685 12.7807C7.87119 13.5567 8.25215 14.2694 8.81156 14.8288C9.37097 15.3882 10.0837 15.7692 10.8596 15.9235C11.6356 16.0779 12.4398 15.9987 13.1707 15.6959C13.9016 15.3932 14.5263 14.8805 14.9659 14.2227C15.4054 13.5649 15.64 12.7915 15.64 12.0004C15.64 10.9395 15.2186 9.9221 14.4684 9.17196C13.7183 8.42181 12.7009 8.00038 11.64 8.00038ZM11.64 14.0004C11.2444 14.0004 10.8577 13.8831 10.5288 13.6633C10.1999 13.4436 9.9436 13.1312 9.79223 12.7657C9.64085 12.4003 9.60125 11.9982 9.67842 11.6102C9.75559 11.2222 9.94607 10.8659 10.2258 10.5862C10.5055 10.3065 10.8618 10.116 11.2498 10.0388C11.6378 9.96164 12.0399 10.0012 12.4054 10.1526C12.7708 10.304 13.0832 10.5603 13.3029 10.8892C13.5227 11.2181 13.64 11.6048 13.64 12.0004C13.64 12.5308 13.4293 13.0395 13.0542 13.4146C12.6791 13.7897 12.1704 14.0004 11.64 14.0004Z" fill="black"/>
</svg>
